<svg id="Capa_1" data-name="Capa 1" xmlns="http://www.w3.org/2000/svg" viewBox="0 0 385.49 553.84"><defs><style>.cls-1{fill:none;}.cls-1,.cls-2{opacity:0.43;}.cls-2,.cls-3,.cls-4{fill:#fff;}.cls-3{font-size:99px;letter-spacing:0.11em;}.cls-3,.cls-4{font-family:MongolianBaiti, Mongolian Baiti;}.cls-4{font-size:27px;letter-spacing:0.11em;}</style></defs><path class="cls-1" d="M229.44-198.24c.86-1.38,1.38-2.29,2-3.15A34.75,34.75,0,0,0,237.64-222a67.86,67.86,0,0,0-4.23-22.54c-5.47-15.53-14.13-28.63-28.28-37.67-2.63-1.68-4.86-4-7.34-5.9a10.1,10.1,0,0,0-2.29-1,14.93,14.93,0,0,0-.21,2.57c.19,2.38.87,4.8.67,7.14q-.78,9-2.2,17.89c-1.53,9.51-3.7,18.94-1.21,28.62a32.18,32.18,0,0,1-.71,18.33c-3.15,9.7-4,19.3,1.3,28.76,2.26,4,2.14,8.13-2.07,11.31-1.62,1.22-2.93,2.83-4.51,4.11a221.39,221.39,0,0,0-35.91,36.17c-8,10.34-13.41,22-18,34.2a76,76,0,0,0,6.6-10.68c11.61-23.66,29.18-42.22,49.87-58,7.05-5.36,15.15-9.32,22.21-14.66,13.38-10.1,28.4-16.94,43.66-23.46,11.22-4.81,22.62-9.25,32.78-16.24,6.71-4.62,12.58-10,16.74-17.13a41.63,41.63,0,0,1,3.93-5.68c8.89-10.65,18-21.1,24.76-33.39.88-1.61,3.44-2.51,5.41-3.24,1.3-.48,2.93,0,4.41-.08,8.14-.25,12.11-6.63,8.78-14a5.8,5.8,0,0,1-.73-3.1c1.34-7.22-1.44-12.6-8.2-15.51-4.16-1.8-7.23-1.11-9.62,2.68a10.52,10.52,0,0,1-5.17,4.21c-7.37,3.17-8.6,7.76-4.22,14.57a81.85,81.85,0,0,1,4.8,8.11c1.83,3.7,2,7.4-.69,11-6.31,8.33-12.52,16.74-18.78,25.11-.17.23-.52.34-1.12.71,2.41-8.79.94-16.65-3.32-24.12a6.32,6.32,0,0,1-.62-3.18,41.4,41.4,0,0,0-4.93-20.56c-4.11-7.9-9.81-14.54-16.13-20.73-10.55-10.32-23.15-17.44-36.47-23.45L235-346.14c7.23-1.07,13.73-1.93,20.19-3,5.9-1,11.9-1.81,17.59-3.55,5.09-1.56,8.53-5.46,9.87-10.82a9.37,9.37,0,0,0-2.39-9.17c.09,1.35.1,2,.18,2.73.95,7.46-1.9,12.54-8.88,15.38a32.68,32.68,0,0,1-7.18,2c-8.14,1.25-16.31,2.31-24.47,3.41s-16.54,1.25-24.38-1.94C196.15-359,187-374.86,182.85-394.28a16.26,16.26,0,0,1,3.91-14.8,30.46,30.46,0,0,1,21.71-10.24c.68,0,1.35-.16,2-.24l.17-.73L207.14-422a13.18,13.18,0,0,1,1.1-.88,66.49,66.49,0,0,0,24.57-28.35c2.72-6,5.21-12.07,8.35-17.81,5.58-10.22,11.58-20.21,17.4-30.3,3.56-6.18,9-9.91,15.64-12.13,4.3-1.45,8.63-2.79,12.95-4.15,20-6.33,36.81-17.13,48.86-34.68a66.47,66.47,0,0,1,5.25-6l6.52-7.4c-9.14,3.46-18.32,1.62-27.39,1.49a89.81,89.81,0,0,0-9.71.23c-9.06.83-17.11,3.75-23,11.28a29.91,29.91,0,0,1-5.85,5.49,46,46,0,0,0-16.26,23c-1.29,3.86-2.41,7.78-3.67,11.65-.62,1.92-1,4.09-2.15,5.65-8.59,11.48-15.33,24-21.36,37-.4.88-.9,1.71-1.36,2.57-.05-4.91-.29-9.54-2.88-13.79-.38-.62,0-1.76.14-2.65.47-3.56,1.45-7.13,1.36-10.68-.17-7-1-14-1.43-21-1-16.38-.76-32.58,6.73-47.82,2.16-4.4,3.65-9.13,5.45-13.7l-.71-.27c-6.8,12.53-13.54,25.08-14.25,39.92-1.07-3.14-1.49-6.4-2.68-9.33-3.23-7.94-2.71-15.72-.55-23.85a56.43,56.43,0,0,0-1.07-32.57,132.41,132.41,0,0,1-4-15c-1.42-7.11-4.51-13.42-7.87-19.75-2.8-5.26-4.77-11-7.13-16.45a8.43,8.43,0,0,0-1.06-1.49c-.49.46-1.2.83-1.44,1.4-3.52,8.33-6.69,16.83-10.53,25C190.71-618,189.71-608.2,190-598a28.5,28.5,0,0,0,4.65,15.16c1.62,2.48,3.68,4.82,4.64,7.54,3,8.4,8.69,14,16.56,17.76a18.92,18.92,0,0,1,10.84,13.61c1.34,6.24,2.9,12.47,3.63,18.78,1.31,11.3,2.19,22.65,3,34,.19,2.85-.72,5.77-1.18,9.06-1.44-.83-2.3-1.34-3.17-1.83a11.74,11.74,0,0,0-17.29,7.19c-1,3.69.64,6.64,4.34,7.72a11.42,11.42,0,0,0,9.83-1.58,75.76,75.76,0,0,0,7-6.05,25.73,25.73,0,0,1,1.08,2.83c1.44,5.63.32,11.13-1.45,16.39-6.09,18.13-18.33,30.72-35.66,38.49-8.23,3.69-14.8,8.79-16.4,18.38,0,.18-.37.3-.69.55-.21-.85-.44-1.55-.56-2.27-1.88-11.46.22-22.48,3.77-33.32,2.62-8,5.61-15.89,7.83-24,.92-3.34.48-7.12.2-10.67-.07-1-1.9-2.66-2.67-2.54a4.33,4.33,0,0,0-2.88,2.72,15.74,15.74,0,0,0,.2,6.26,29.48,29.48,0,0,1-1.3,18.43c-5,12.13-8.56,24.68-7.82,38,0,.19-.27.39,0,0-5.48-6.86-11-13.84-16.59-20.67-1.47-1.78-2.32-3.56-2-5.8.61-3.74,1.23-7.48,2-11.19a31.84,31.84,0,0,0-2.78-21.6c-2.76-5.4-7.52-7.46-13.57-6.27a3,3,0,0,1-1.78-.4c-5.81-3-11.58-1.95-16.48,2.76a5.07,5.07,0,0,1-3.26,1.25c-2.56,0-4.55.64-5.77,3-1.69,3.29-3.33,6.6-5.09,9.85-4.18,7.75-1.58,23,7.64,26.39.76.28,1.35,1.79,1.5,2.8,1,6.39,5,10.15,10.6,12.48,5.08,2.11,9.41.5,13.15-3.18,1.26-1.23,2.41-2.58,3.71-3.75,2.06-1.85,4.15-3.68,6.34-5.37a2.43,2.43,0,0,1,3.66.32c9.32,9.95,17.06,20.94,22.36,33.55a36.31,36.31,0,0,1,1.25,4.58c-.47-.08-.69,0-.79-.14-.45-.46-.87-.95-1.29-1.44a36.72,36.72,0,0,0-13.52-10,33.93,33.93,0,0,0-19-2.64,6.63,6.63,0,0,0-1.8,1,4.6,4.6,0,0,0,.79,1.29c2.92,2.37,6,4.62,8.81,7.06a11.41,11.41,0,0,0,9.75,2.91c2.19-.38,4.36-.89,6.5-1.46a5.16,5.16,0,0,1,5.45,1.64c6.68,6.62,10.4,15.13,15.22,23.07-.39,0-.58.11-.72,0-.68-.29-1.35-.62-2-.93-18.51-8.68-37.52-10-57-3.86a8.85,8.85,0,0,0-2,1.28A10.65,10.65,0,0,0,131.7-369c4.55,2.47,9.22,4.7,13.68,7.3,9.2,5.36,17.92,4.87,26.28-1.79,2-1.61,3.86-3.47,5.93-5a3.59,3.59,0,0,1,2.89-.63,95.38,95.38,0,0,1,11.06,5.08,48,48,0,0,1,7.76,5.8,53.51,53.51,0,0,0,20.52,11.18,3,3,0,0,1-1.32.47c-6.07.69-12.17,1.12-18.19,2.12-8.05,1.34-16,3.34-23.07,7.62a25.09,25.09,0,0,0-6.22,5.35,4.22,4.22,0,0,0,.35,6.06c2,1.82,4.23,1,6.06-.45a15.12,15.12,0,0,0,2.84-3.37c1.24-1.84,2.12-4,3.56-5.62s3.21-3.64,5.22-4.29a105.17,105.17,0,0,1,32.5-5.13c10.82,0,20.59,4.33,30.18,8.52a99.57,99.57,0,0,1,35.3,26c5.83,6.67,10.91,13.83,13.25,22.54.78,2.91,1,6,1.52,8.95l-1.1.49a24.91,24.91,0,0,0-2.06-2.59c-8.94-8.59-24.06-10.76-34-4.9-8.47,5-12.4,14.38-9.86,23.53,2.47,8.86,10.81,14.8,20.57,14.64,10.84-.18,23.34-9.32,27-19.73.32-.91.63-1.82,1.19-3.43.79,1.94,1.32,3.1,1.74,4.3,3.21,9.22,1.21,17.77-3.71,25.75-6.43,10.4-16.36,16.74-27,22-8,3.91-16.23,7.2-24.36,10.8C243.49-204.56,236.78-201.53,229.44-198.24ZM451.56-462.58c-2.52.95-4.59-.37-6.19-2.91-.54-.86-1.18-1.67-1.66-2.56a6.38,6.38,0,0,0-7.76-3.3c-2.14.54-4.66,1.52-5.94,3.14a74.43,74.43,0,0,0-8.07,12.52c-3,6-6.41,11.45-12,15.29a10.18,10.18,0,0,0-1.47,1.53l.54.71a20.39,20.39,0,0,0,3-1.59c2.59-1.94,5.08-4,7.62-6,9.32-7.38,19.13-13.68,31.42-14.78,5.65-.5,9.63,2,11.52,7.72-6.56,5.28-14.9,6.86-22.37,10.36a55,55,0,0,0,22.8-8c2.35,11.2,4.64,10.14,9.82,14.89a169.33,169.33,0,0,1,12.23,12c5.25,5.86,6,13.66,1.68,20.25a55.31,55.31,0,0,1-10,11.77,102.36,102.36,0,0,1-26.19,16A227.14,227.14,0,0,1,415-363.82c-11.12,2.76-22.28,5.43-33.33,8.48-10.39,2.88-20.84,5.19-31.65,5.4s-20.66-3.78-30-8.91c-7-3.83-13.79-7.93-20.71-11.86a22.6,22.6,0,0,0-3.05-1.23l-.48.94c8.32,5.15,16.47,10.61,25,15.37,9.31,5.18,19.28,8.62,30.18,8.2a124.75,124.75,0,0,0,32.42-5.87,172.89,172.89,0,0,1,18.7-5.2c13.29-2.59,26.38-5.76,39.05-10.57a4.54,4.54,0,0,1,1.36,0,5.54,5.54,0,0,1-.57.93,79.7,79.7,0,0,0-20.8,34.28c-4.62,14.91-6,30.26-6.25,45.78a194.76,194.76,0,0,1-1.22,22.16c-1.8,13.82-8.29,26-14.48,38.25-9.45,18.65-19.66,36.94-26.65,56.75-5.72,16.22-8.13,32.83-5.83,50a20.38,20.38,0,0,0,.57,2.4,2.32,2.32,0,0,0,.78-1.72c0-2.5,0-5-.14-7.5a104.45,104.45,0,0,1,5.23-38.57c6.61-20.26,16.74-38.9,26.53-57.7,7-13.49,13.3-27.27,16.75-42.2a21,21,0,0,1,10.07-14c1.84-1.07,3.68-2.15,5.57-3.12a26.08,26.08,0,0,0,11.68-11.45,23,23,0,0,1,5.76-7.35,109,109,0,0,1,12.28-8c6.62-4,11.62-9.39,13.72-16.8a57.53,57.53,0,0,1,7.13-16.16c4.45-6.81,6.09-15.18,11.86-21.26a1.73,1.73,0,0,0,.07-1.69,3.12,3.12,0,0,0-2-.49c-2.86.2-5.7.5-8.56.77-7.57.72-15.13,1.58-22,5.1-16.49,8.38-27.59,21.58-34.82,38.46-5.18,12.09-7.35,24.78-8.63,37.72-.24,2.4-.76,4.78-1.16,7.17-.41-17.86-.15-35.61,4.77-52.92,3.57-12.57,9.2-24.05,18.23-33.59a55.94,55.94,0,0,1,10.46-8.93c7-4.43,14.55-8.05,21.62-12.4a51.06,51.06,0,0,0,15.44-15.36c4.12-6.11,5.93-17.87-1.3-24.94-5.27-5.16-10.83-10-16.36-14.95-2.45-2.17-4.39-4.55-4.47-8-.15-6.24-3.16-10.74-8.41-13.77-3.81-2.19-5.19-5.22-5.11-9.62.19-10.38-4.32-16.14-14.29-19.09a21.23,21.23,0,0,0-2.66-.78c-9.81-1.59-10.82-5.63-8.22-14.53a110.25,110.25,0,0,0,3.43-17.88c.54-4.58-1.92-8.32-5.77-10.68a22.43,22.43,0,0,0-8.14-3.27c-7.67-1.15-15.42-2-23.16-2.53-5.77-.43-9.55-3-11.35-8.5-.32-1-.71-1.91-1-2.89a33.32,33.32,0,0,0-12.29-18c-12.89-9.64-25.66-19.45-38.77-28.78-5.92-4.21-12.5-7.5-18.86-11.07a25.84,25.84,0,0,0-4.93-1.6l-.32.79c.9.57,1.79,1.18,2.72,1.72,5.27,3.08,10.82,5.76,15.78,9.28,13.65,9.7,27.08,19.72,40.54,29.68,5.25,3.89,9.94,8.33,12.41,14.62,1.71,4.34,3.43,8.68,5.23,13.26C374-544,365.44-546,363.08-556.84a6,6,0,0,0-.57,3.26,12.56,12.56,0,0,0,6.26,8.75c7.57,4.44,16,5.43,24.52,6.33,7.91.83,15.87,1.36,23.72,2.63,8.17,1.31,11.83,6.25,11.18,14.42a70.62,70.62,0,0,1-1.94,10.33c-.75,3.24-1.95,6.39-2.59,9.65-1,5.22,1.74,9.36,6.84,10.74.49.13,1,.31,2.09.66a19.52,19.52,0,0,0-9.81,10.39c-2.68,6.26-3.94,10.36-3.54,14.06,1.48-3.89,2.49-7.16,4-10.2,1.56-3.21,3.18-6.56,5.51-9.19,3.86-4.36,8.13-4.71,13.3-2,5.32,2.76,7.43,7.43,8.05,13.1C450.47-470.28,451-466.63,451.56-462.58Zm-104.15-39,.12-.91-11.17-1.8c2.23-2.48,4.08-4.15,7.35-3.73a33.69,33.69,0,0,0,8.86,0c3.56-.51,7-1.63,10.55-2.49l-.21-1c-6.56,1-13.07,2.78-20.59,1.57l7.66-6.78-.45-.82a13.92,13.92,0,0,0-3.43,1.47c-2.25,1.78-4.32,3.77-6.44,5.7-7,6.42-15,11.29-24.4,13.14-7.59,1.5-15.37,2-23.07,3-.91.11-1.82.14-2.73.21l0,.79a12.55,12.55,0,0,0,3.34.89,4.43,4.43,0,0,1,4.62,3.16,39.33,39.33,0,0,1,1.48,4.45c.67,2.69,1,5.47,1.85,8.11,2.51,8.08,7.34,11.74,15.67,12.7,2.58.3,5.07,1.5,7.6,2.31.63.21,1.24.48,2.71,1-.7-1.55-1-2.35-1.4-3.09-1.5-2.65-3.19-5.21-4.55-7.94a20.42,20.42,0,0,0-13.17-11.12c-4.95-1.36-7.18-5-9.5-9.27,2.74-.31,5.29-.26,7.63-.94,4.32-1.26,7.39.34,10.42,3.22,6.22,5.94,12.68,11.63,18.93,17.55a5.86,5.86,0,0,1,1.64,3.62,26.45,26.45,0,0,0,4.78,13.37c1.88,2.88,3.9,3.77,6.73,2a46,46,0,0,0,8.32-6.39c1.15-1.16,1.19-3.47,1.63-5.28.16-.69-.06-1.46,0-2.18.54-4.65-1.15-7.45-5.76-7.7-4.81-.27-9.67.45-14.51.72-.59,0-1.38.16-1.75-.15-3.48-3-6.89-6-10.89-9.58l12.4,2.85.49-.81a15.24,15.24,0,0,0-1.27-2.52c-3-3.89-7.32-5.18-12.14-3.77-.93.28-2.28.79-2.85.38-2.71-1.95-5.22-4.18-7.7-6.24,6.05-3.62,11.6-3.22,16.87.95a2.82,2.82,0,0,0,.72.4c4.75,1.77,9.42,3.82,14.27,5.19a23.2,23.2,0,0,0,8.24.27c.85-.08,1.57-1.66,2.34-2.55-.9-.78-1.74-2.07-2.73-2.2-1.24-.16-2.62.61-3.92,1-1.65.52-3.4,1.76-4.91,1.51-7.13-1.16-13.08-5.09-19.4-8.62,7.61-5,7.61-4.93,15.88-3.72A40.6,40.6,0,0,0,347.41-501.55ZM261.32-375.71c-5.43-4.08-14.28-4.27-21.78-1-2.37,1.05-4.68,2.23-7,3.42-4.15,2.16-8.28,2.11-12.07-.61-4.38-3.14-9.17-4-14.43-3.78-5.55.25-8.73-2.34-10.72-8.17a9.11,9.11,0,0,1,4.16-11.29c3.92-2.27,8.44-3.49,12.72-5.12a23.13,23.13,0,0,1,2.87-.71l-.09-.76a12.65,12.65,0,0,0-2.34-.37A24,24,0,0,0,196-397c-3.49,3.46-4.17,7.86-2.41,12.35,2.78,7.08,6.75,9.56,12.92,9.11a17.21,17.21,0,0,1,11.83,3.05c5.15,3.75,10.6,3.94,16.19.94,1.22-.66,2.49-1.24,3.7-1.91a26.32,26.32,0,0,1,16.64-3C257-376.16,259.15-376,261.32-375.71Zm39.59-133.9.54.75c1.11-.66,2.25-1.28,3.32-2,6.42-4.21,12.7-8.64,19.27-12.59,6.07-3.65,12.59-4.74,19.36-1.58a11.78,11.78,0,0,0,2.18.54c-3.2-4.86-8.17-4.46-13.15-4.58l2.9-5.5-.69-.4a7.52,7.52,0,0,0-1.16,1.09c-2.48,3.49-6,5.57-9.56,7.82-7.17,4.54-14.06,9.53-21,14.38A13.75,13.75,0,0,0,300.91-509.61Zm119.78-2.71c-.88-2.12-2.47-2-3.31-.87-3.09,4.3-6,8.75-8.73,13.29a2.32,2.32,0,0,0,1.33,3.61c1.92.55,3.67,0,4.23-2a10.27,10.27,0,0,0-.12-4.3C413.51-506.29,416.78-511.37,420.69-512.32Zm-30,6.79c-3.16,3-2.74,6.65-1.59,10,1.7,5,5.6,7.94,10.73,9a5.64,5.64,0,0,0,6.12-2.71c-5.28,2.05-9.15.07-12.56-3.34C389.66-496.21,390.31-500.85,390.65-505.53Z" transform="translate(-109.26 653.9)"/><path class="cls-2" d="M229.44-198.24c7.34-3.29,14.05-6.32,20.78-9.31,8.13-3.6,16.4-6.89,24.36-10.8,10.64-5.22,20.57-11.56,27-22,4.92-8,6.92-16.53,3.71-25.75-.42-1.2-1-2.36-1.74-4.3-.56,1.61-.87,2.52-1.19,3.43-3.64,10.41-16.14,19.55-27,19.73-9.76.16-18.1-5.78-20.57-14.64-2.54-9.15,1.39-18.53,9.86-23.53,9.91-5.86,25-3.69,34,4.9a24.91,24.91,0,0,1,2.06,2.59l1.1-.49c-.49-3-.74-6-1.52-8.95-2.34-8.71-7.42-15.87-13.25-22.54a99.57,99.57,0,0,0-35.3-26c-9.59-4.19-19.36-8.56-30.18-8.52a105.17,105.17,0,0,0-32.5,5.13c-2,.65-3.75,2.6-5.22,4.29s-2.32,3.78-3.56,5.62a15.12,15.12,0,0,1-2.84,3.37c-1.83,1.48-4.07,2.27-6.06.45a4.22,4.22,0,0,1-.35-6.06,25.09,25.09,0,0,1,6.22-5.35c7.08-4.28,15-6.28,23.07-7.62,6-1,12.12-1.43,18.19-2.12a3,3,0,0,0,1.32-.47,53.51,53.51,0,0,1-20.52-11.18,48,48,0,0,0-7.76-5.8,95.38,95.38,0,0,0-11.06-5.08,3.59,3.59,0,0,0-2.89.63c-2.07,1.54-3.91,3.4-5.93,5-8.36,6.66-17.08,7.15-26.28,1.79-4.46-2.6-9.13-4.83-13.68-7.3a10.65,10.65,0,0,1-1.88-1.69,8.85,8.85,0,0,1,2-1.28c19.51-6.17,38.52-4.82,57,3.86.66.31,1.33.64,2,.93.14.06.33,0,.72,0-4.82-7.94-8.54-16.45-15.22-23.07a5.16,5.16,0,0,0-5.45-1.64c-2.14.57-4.31,1.08-6.5,1.46a11.41,11.41,0,0,1-9.75-2.91c-2.86-2.44-5.89-4.69-8.81-7.06a4.6,4.6,0,0,1-.79-1.29,6.63,6.63,0,0,1,1.8-1,33.93,33.93,0,0,1,19,2.64,36.72,36.72,0,0,1,13.52,10c.42.49.84,1,1.29,1.44.1.1.32.06.79.14a36.31,36.31,0,0,0-1.25-4.58c-5.3-12.61-13-23.6-22.36-33.55a2.43,2.43,0,0,0-3.66-.32c-2.19,1.69-4.28,3.52-6.34,5.37-1.3,1.17-2.45,2.52-3.71,3.75-3.74,3.68-8.07,5.29-13.15,3.18-5.6-2.33-9.64-6.09-10.6-12.48-.15-1-.74-2.52-1.5-2.8-9.22-3.39-11.82-18.64-7.64-26.39,1.76-3.25,3.4-6.56,5.09-9.85,1.22-2.36,3.21-3,5.77-3a5.07,5.07,0,0,0,3.26-1.25c4.9-4.71,10.67-5.73,16.48-2.76a3,3,0,0,0,1.78.4c6-1.19,10.81.87,13.57,6.27a31.84,31.84,0,0,1,2.78,21.6c-.76,3.71-1.38,7.45-2,11.19-.36,2.24.49,4,2,5.8,5.64,6.83,11.11,13.81,16.59,20.67-.27.37,0,.17,0,0-.74-13.36,2.82-25.91,7.82-38a29.48,29.48,0,0,0,1.3-18.43,15.74,15.74,0,0,1-.2-6.26,4.33,4.33,0,0,1,2.88-2.72c.77-.12,2.6,1.57,2.67,2.54.28,3.55.72,7.33-.2,10.67-2.22,8.11-5.21,16-7.83,24-3.55,10.84-5.65,21.86-3.77,33.32.12.72.35,1.42.56,2.27.32-.25.66-.37.69-.55,1.6-9.59,8.17-14.69,16.4-18.38,17.33-7.77,29.57-20.36,35.66-38.49,1.77-5.26,2.89-10.76,1.45-16.39a25.73,25.73,0,0,0-1.08-2.83,75.76,75.76,0,0,1-7,6.05A11.42,11.42,0,0,1,216-469c-3.7-1.08-5.36-4-4.34-7.72a11.74,11.74,0,0,1,17.29-7.19c.87.49,1.73,1,3.17,1.83.46-3.29,1.37-6.21,1.18-9.06-.77-11.34-1.65-22.69-3-34-.73-6.31-2.29-12.54-3.63-18.78a18.92,18.92,0,0,0-10.84-13.61c-7.87-3.76-13.57-9.36-16.56-17.76-1-2.72-3-5.06-4.64-7.54A28.5,28.5,0,0,1,190-598c-.28-10.21.72-20.06,5.15-29.5,3.84-8.18,7-16.68,10.53-25,.24-.57,1-.94,1.44-1.4a8.43,8.43,0,0,1,1.06,1.49c2.36,5.49,4.33,11.19,7.13,16.45,3.36,6.33,6.45,12.64,7.87,19.75a132.41,132.41,0,0,0,4,15,56.43,56.43,0,0,1,1.07,32.57c-2.16,8.13-2.68,15.91.55,23.85,1.19,2.93,1.61,6.19,2.68,9.33.71-14.84,7.45-27.39,14.25-39.92l.71.27c-1.8,4.57-3.29,9.3-5.45,13.7-7.49,15.24-7.69,31.44-6.73,47.82.41,7,1.26,14,1.43,21,.09,3.55-.89,7.12-1.36,10.68-.12.89-.52,2-.14,2.65,2.59,4.25,2.83,8.88,2.88,13.79.46-.86,1-1.69,1.36-2.57,6-12.95,12.77-25.48,21.36-37,1.16-1.56,1.53-3.73,2.15-5.65,1.26-3.87,2.38-7.79,3.67-11.65a46,46,0,0,1,16.26-23,29.91,29.91,0,0,0,5.85-5.49c5.86-7.53,13.91-10.45,23-11.28a89.81,89.81,0,0,1,9.71-.23c9.07.13,18.25,2,27.39-1.49l-6.52,7.4a66.47,66.47,0,0,0-5.25,6c-12.05,17.55-28.85,28.35-48.86,34.68-4.32,1.36-8.65,2.7-12.95,4.15-6.61,2.22-12.08,5.95-15.64,12.13-5.82,10.09-11.82,20.08-17.4,30.3-3.14,5.74-5.63,11.85-8.35,17.81a66.49,66.49,0,0,1-24.57,28.35,13.18,13.18,0,0,0-1.1.88l3.52,1.68-.17.73c-.67.08-1.34.21-2,.24a30.46,30.46,0,0,0-21.71,10.24,16.26,16.26,0,0,0-3.91,14.8c4.12,19.42,13.3,35.3,32.67,43.19,7.84,3.19,16.12,3.06,24.38,1.94s16.33-2.16,24.47-3.41a32.68,32.68,0,0,0,7.18-2c7-2.84,9.83-7.92,8.88-15.38-.08-.68-.09-1.38-.18-2.73a9.37,9.37,0,0,1,2.39,9.17c-1.34,5.36-4.78,9.26-9.87,10.82-5.69,1.74-11.69,2.55-17.59,3.55-6.46,1.1-13,2-20.19,3l11.62,5.22c13.32,6,25.92,13.13,36.47,23.45,6.32,6.19,12,12.83,16.13,20.73a41.4,41.4,0,0,1,4.93,20.56,6.32,6.32,0,0,0,.62,3.18c4.26,7.47,5.73,15.33,3.32,24.12.6-.37.95-.48,1.12-.71,6.26-8.37,12.47-16.78,18.78-25.11,2.7-3.57,2.52-7.27.69-11a81.85,81.85,0,0,0-4.8-8.11c-4.38-6.81-3.15-11.4,4.22-14.57a10.52,10.52,0,0,0,5.17-4.21c2.39-3.79,5.46-4.48,9.62-2.68,6.76,2.91,9.54,8.29,8.2,15.51a5.8,5.8,0,0,0,.73,3.1c3.33,7.4-.64,13.78-8.78,14-1.48,0-3.11-.4-4.41.08-2,.73-4.53,1.63-5.41,3.24-6.73,12.29-15.87,22.74-24.76,33.39a41.63,41.63,0,0,0-3.93,5.68c-4.16,7.12-10,12.51-16.74,17.13-10.16,7-21.56,11.43-32.78,16.24-15.26,6.52-30.28,13.36-43.66,23.46-7.06,5.34-15.16,9.3-22.21,14.66-20.69,15.76-38.26,34.32-49.87,58a76,76,0,0,1-6.6,10.68c4.58-12.17,10-23.86,18-34.2a221.39,221.39,0,0,1,35.91-36.17c1.58-1.28,2.89-2.89,4.51-4.11,4.21-3.18,4.33-7.28,2.07-11.31-5.32-9.46-4.45-19.06-1.3-28.76a32.18,32.18,0,0,0,.71-18.33c-2.49-9.68-.32-19.11,1.21-28.62q1.43-8.9,2.2-17.89c.2-2.34-.48-4.76-.67-7.14a14.93,14.93,0,0,1,.21-2.57,10.1,10.1,0,0,1,2.29,1c2.48,1.92,4.71,4.22,7.34,5.9,14.15,9,22.81,22.14,28.28,37.67A67.86,67.86,0,0,1,237.64-222a34.75,34.75,0,0,1-6.22,20.64C230.82-200.53,230.3-199.62,229.44-198.24ZM198.35-179.3l.57.7c8.26-5.75,17-11,24.65-17.4a31.12,31.12,0,0,0,11.53-25.17c-.43-19.88-7.87-36.92-21.5-51.2-3.55-3.71-8-6.55-12.07-9.79,8.23,17.8,13,33,13.65,48.88.75,17.87-2.54,34.85-13.43,49.67C200.66-182.14,199.48-180.73,198.35-179.3Zm.91-103.33c-1.67,11-3.51,21.94-4.89,32.92a38.27,38.27,0,0,0,.15,13,47.63,47.63,0,0,1-1.09,25.93c-2,6.1-2.76,12.49-.22,18.79,1.36,3.37,2.68,6.76,4.07,10.27.37-.39.75-.77,1.08-1.18,11.43-14.6,14.79-31.57,14.46-49.58-.2-11.33-3.55-22.06-7-32.7C203.86-271.18,201.41-277,199.26-282.63Zm75.33,33c11.7-.07,24.23-10.36,26.33-21.7a5.29,5.29,0,0,0-.39-3.4c-6.6-10.82-24.15-15.05-35-8.55A18.33,18.33,0,0,0,257-262.73,18.37,18.37,0,0,0,274.59-249.6ZM223-556c-.21-.73-.31-1.17-.47-1.59-3.08-8.32-6.13-16.66-9.26-25-6.81-18.1-10.18-36.66-7.79-56,.27-2.17.25-4.37.37-6.56l-1.05-.19c-5.09,13.72-12.46,26.57-12.39,42.07,0,8.86,1.67,16.59,7.23,23.51a20,20,0,0,1,2.72,5.42,24.25,24.25,0,0,0,10.57,12.44C216.13-560,219.4-558.12,223-556Zm116.59-2.84-.58-1c-8.49,0-17-.16-25.47.05-9.48.23-18,2.78-24.2,10.75a25.23,25.23,0,0,1-5.21,4.95c-8.45,6.07-13.8,14.28-17,24-.89,2.74-1.77,5.49-2.66,8.23a1.53,1.53,0,0,0,1.29-.48,109.51,109.51,0,0,1,47.72-32.6,195.67,195.67,0,0,0,21-9.29C336.42-555.14,337.85-557.27,339.54-558.87Zm-115.5-3c3.29-11.33,5.18-22.67,2.07-34.24-1.3-4.83-3.39-9.51-4.06-14.41-1.76-12.66-8.47-23.15-14.05-34.16-.05-.08-.33-.05-.94-.13.32,11.76-.88,23.46,1.28,35.14C211.42-593,217.73-577.44,224-561.83Zm-88.35,108.7c-3.45-4.37-6.3-8.21-9.43-11.81a8.17,8.17,0,0,0-3.88-1.92c-2-.59-3.55.29-4.5,2.24-1.46,3-3,5.93-4.53,8.87-5.34,10.19-.47,22.44,10.4,25.32,8.91,2.37,17.66-.24,26.5-1.75-2.77-1.63-5.76-2.63-8.41-4.2a84.51,84.51,0,0,1-10.62-7.33,5.79,5.79,0,0,1-1.69-6.83C130.49-453.08,132.48-453.53,135.69-453.13ZM268.06-512l.41.36c7.39-2.51,14.8-4.93,22.15-7.54,16.21-5.76,30.07-14.91,40.67-28.65a17.29,17.29,0,0,0,1.09-1.87c-5,2-9.68,4-14.46,5.61-13.64,4.55-26.31,10.85-37.26,20.27C276.3-520,272.25-515.93,268.06-512ZM150.69-437.52l1.08-.54a60.24,60.24,0,0,1-.3-7.09,30.33,30.33,0,0,0-7.86-23.42c-5.11-5.79-12.48-6-17.4.18ZM176-370.82c-13.82-3.3-27.4-3.72-41.51.18,4.86,2.79,9.23,5.29,13.59,7.82C158-357.06,168.46-361.77,176-370.82Zm-54-57.75c.54,5.41,3.38,8.66,7.47,11s8.12,2.68,11.83-.6c2.84-2.51,5.44-5.28,8.21-7.85,1.28-1.19,2.73-2.19,4.1-3.27l-.27-.65C143-429.32,132.85-425.65,122-428.57ZM333.55-309.88c7.38,5.4,7.94,12.29,4.49,20.22,4-3.21,8.46-5.63,10.79-10.22,1.33-2.61,1.67-5.42-.28-7.84a24.15,24.15,0,0,0-5.15-4.95C339.11-315.57,336.33-314.74,333.55-309.88ZM144.29-471.18c1.22,1.64,2.17,3.1,3.3,4.4a23.61,23.61,0,0,1,6,15.95c0,3.78.11,7.57.38,11.34a49.8,49.8,0,0,0,1.11,6l.69-.07c.89-5.7,1.95-11.38,2.62-17.1.62-5.38-.86-10.46-3.21-15.26A9.8,9.8,0,0,0,144.29-471.18ZM332.77-282.5a33,33,0,0,0,.75-5.65c-.2-4.89-.89-9.79,1.85-14.29,1.26-2.06-.71-5.9-2.9-5.2a20.82,20.82,0,0,0-8.12,4.7c-2.14,2.11-.47,4.82.85,7.12C327.62-291.61,330-287.38,332.77-282.5ZM223.58-483.19a9.88,9.88,0,0,0-9.19,5.58c-1.71,3.93,0,6.95,4.3,6.53a17.12,17.12,0,0,0,7.77-3c1.79-1.25,4.21-4.23,3.75-5.5C229.23-482.28,225.94-483,223.58-483.19Zm-74.23,48.05.66-.71q-6.75-7.25-13.51-14.47a2,2,0,0,0-1.18-.68c-1.11-.09-2.7-.46-3.23.1-.71.76-1.22,2.7-.74,3.41,1.45,2.16,3.11,4.48,5.26,5.82C140.65-439.15,145.09-437.28,149.35-435.14Zm21.38,40.7c-3.59-4-16.19-7.75-20.17-6.05C158.64-391.79,162.46-390.64,170.73-394.44Zm179,97.89c-4.33,3.84-8.39,7.42-12.81,11.33,6.9,1.27,10.32.3,13-3.19C352-291.14,351.14-293.71,349.73-296.55ZM182-336l-.56-.55a52.28,52.28,0,0,0-5.15,3.08,15.61,15.61,0,0,0-3.6,3.7,2.94,2.94,0,0,0,.37,2.69c.29.38,1.71.16,2.48-.15a4.45,4.45,0,0,0,1.85-1.6C178.93-331.19,180.42-333.61,182-336Zm6.43-135.18c-2.13,2.33-1.76,8.55.57,11.7C189.45-463.49,190.68-467.32,188.38-471.19Zm150,170-1.29-.25c-2,3.16-2.05,6.65-1.85,10.19l1,.2Z" transform="translate(-109.26 653.9)"/><path class="cls-2" d="M451.56-462.58c-.53-4.05-1.09-7.7-1.49-11.37-.62-5.67-2.73-10.34-8.05-13.1-5.17-2.67-9.44-2.32-13.3,2-2.33,2.63-4,6-5.51,9.19-1.48,3-2.49,6.31-4,10.2-.4-3.7.86-7.8,3.54-14.06a19.52,19.52,0,0,1,9.81-10.39c-1.11-.35-1.6-.53-2.09-.66-5.1-1.38-7.86-5.52-6.84-10.74.64-3.26,1.84-6.41,2.59-9.65a70.62,70.62,0,0,0,1.94-10.33c.65-8.17-3-13.11-11.18-14.42-7.85-1.27-15.81-1.8-23.72-2.63-8.48-.9-17-1.89-24.52-6.33a12.56,12.56,0,0,1-6.26-8.75,6,6,0,0,1,.57-3.26C365.44-546,374-544,382.59-542.08c-1.8-4.58-3.52-8.92-5.23-13.26-2.47-6.29-7.16-10.73-12.41-14.62-13.46-10-26.89-20-40.54-29.68-5-3.52-10.51-6.2-15.78-9.28-.93-.54-1.82-1.15-2.72-1.72l.32-.79a25.84,25.84,0,0,1,4.93,1.6c6.36,3.57,12.94,6.86,18.86,11.07,13.11,9.33,25.88,19.14,38.77,28.78a33.32,33.32,0,0,1,12.29,18c.28,1,.67,1.92,1,2.89,1.8,5.48,5.58,8.07,11.35,8.5,7.74.57,15.49,1.38,23.16,2.53a22.43,22.43,0,0,1,8.14,3.27c3.85,2.36,6.31,6.1,5.77,10.68a110.25,110.25,0,0,1-3.43,17.88c-2.6,8.9-1.59,12.94,8.22,14.53a21.23,21.23,0,0,1,2.66.78c10,2.95,14.48,8.71,14.29,19.09-.08,4.4,1.3,7.43,5.11,9.62,5.25,3,8.26,7.53,8.41,13.77.08,3.41,2,5.79,4.47,8,5.53,4.91,11.09,9.79,16.36,14.95,7.23,7.07,5.42,18.83,1.3,24.94a51.06,51.06,0,0,1-15.44,15.36c-7.07,4.35-14.6,8-21.62,12.4a55.94,55.94,0,0,0-10.46,8.93c-9,9.54-14.66,21-18.23,33.59-4.92,17.31-5.18,35.06-4.77,52.92.4-2.39.92-4.77,1.16-7.17,1.28-12.94,3.45-25.63,8.63-37.72,7.23-16.88,18.33-30.08,34.82-38.46,6.91-3.52,14.47-4.38,22-5.1,2.86-.27,5.7-.57,8.56-.77a3.12,3.12,0,0,1,2,.49,1.73,1.73,0,0,1-.07,1.69c-5.77,6.08-7.41,14.45-11.86,21.26A57.53,57.53,0,0,0,475.5-327c-2.1,7.41-7.1,12.83-13.72,16.8a109,109,0,0,0-12.28,8,23,23,0,0,0-5.76,7.35,26.08,26.08,0,0,1-11.68,11.45c-1.89,1-3.73,2.05-5.57,3.12a21,21,0,0,0-10.07,14c-3.45,14.93-9.73,28.71-16.75,42.2-9.79,18.8-19.92,37.44-26.53,57.7a104.45,104.45,0,0,0-5.23,38.57c.14,2.5.12,5,.14,7.5a2.32,2.32,0,0,1-.78,1.72,20.38,20.38,0,0,1-.57-2.4c-2.3-17.15.11-33.76,5.83-50,7-19.81,17.2-38.1,26.65-56.75,6.19-12.21,12.68-24.43,14.48-38.25a194.76,194.76,0,0,0,1.22-22.16c.27-15.52,1.63-30.87,6.25-45.78a79.7,79.7,0,0,1,20.8-34.28,5.54,5.54,0,0,0,.57-.93,4.54,4.54,0,0,0-1.36,0c-12.67,4.81-25.76,8-39.05,10.57a172.89,172.89,0,0,0-18.7,5.2A124.75,124.75,0,0,1,351-347.43c-10.9.42-20.87-3-30.18-8.2-8.54-4.76-16.69-10.22-25-15.37l.48-.94a22.6,22.6,0,0,1,3.05,1.23c6.92,3.93,13.74,8,20.71,11.86,9.33,5.13,19.06,9.13,30,8.91s21.26-2.52,31.65-5.4c11-3.05,22.21-5.72,33.33-8.48a227.14,227.14,0,0,0,35.54-11.72,102.36,102.36,0,0,0,26.19-16,55.31,55.31,0,0,0,10-11.77c4.31-6.59,3.57-14.39-1.68-20.25a169.33,169.33,0,0,0-12.23-12c-5.18-4.75-7.47-3.69-9.82-14.89a55,55,0,0,1-22.8,8c7.47-3.5,15.81-5.08,22.37-10.36-1.89-5.73-5.87-8.22-11.52-7.72-12.29,1.1-22.1,7.4-31.42,14.78-2.54,2-5,4.07-7.62,6a20.39,20.39,0,0,1-3,1.59l-.54-.71a10.18,10.18,0,0,1,1.47-1.53c5.62-3.84,9-9.31,12-15.29A74.43,74.43,0,0,1,430-468.21c1.28-1.62,3.8-2.6,5.94-3.14a6.38,6.38,0,0,1,7.76,3.3c.48.89,1.12,1.7,1.66,2.56C447-462.95,449-461.63,451.56-462.58Zm-30,182.52c3.51-2.07,6.79-4.12,10.18-6,4.28-2.34,7.23-5.75,9.76-9.93a42.8,42.8,0,0,1,8.35-9.85c2.94-2.58,6.69-4.26,10.13-6.25a29.29,29.29,0,0,0,13.44-16.31,139.92,139.92,0,0,1,5.69-13.77c2.2-4.68,4.8-9.18,7.17-13.78.72-1.38,1.26-2.85,2.06-4.7C460.15-347.26,428.21-308.56,421.55-280.06Zm-.5-8.18.76.33c12.14-33.79,35.78-57.43,65.91-75.37-.14-.09-.28-.26-.42-.26-13.41.28-25.65,3.73-36.24,12.49-15.29,12.65-23.45,29.27-27.69,48.15C422.29-298.08,421.8-293.13,421.05-288.24Zm23.83-174.44c-.51-.8-1.27-2.05-2.08-3.26-2.61-3.9-6.49-4.64-10.14-1.65-5.29,4.34-7.46,10.66-10.43,16.36Z" transform="translate(-109.26 653.9)"/><path class="cls-2" d="M347.41-501.55a40.6,40.6,0,0,1-5.84-.05c-8.27-1.21-8.27-1.27-15.88,3.72,6.32,3.53,12.27,7.46,19.4,8.62,1.51.25,3.26-1,4.91-1.51,1.3-.4,2.68-1.17,3.92-1,1,.13,1.83,1.42,2.73,2.2-.77.89-1.49,2.47-2.34,2.55a23.2,23.2,0,0,1-8.24-.27c-4.85-1.37-9.52-3.42-14.27-5.19a2.82,2.82,0,0,1-.72-.4c-5.27-4.17-10.82-4.57-16.87-.95,2.48,2.06,5,4.29,7.7,6.24.57.41,1.92-.1,2.85-.38,4.82-1.41,9.16-.12,12.14,3.77a15.24,15.24,0,0,1,1.27,2.52l-.49.81-12.4-2.85c4,3.54,7.41,6.6,10.89,9.58.37.31,1.16.18,1.75.15,4.84-.27,9.7-1,14.51-.72,4.61.25,6.3,3.05,5.76,7.7-.09.72.13,1.49,0,2.18-.44,1.81-.48,4.12-1.63,5.28a46,46,0,0,1-8.32,6.39c-2.83,1.76-4.85.87-6.73-2a26.45,26.45,0,0,1-4.78-13.37,5.86,5.86,0,0,0-1.64-3.62c-6.25-5.92-12.71-11.61-18.93-17.55-3-2.88-6.1-4.48-10.42-3.22-2.34.68-4.89.63-7.63.94,2.32,4.28,4.55,7.91,9.5,9.27a20.42,20.42,0,0,1,13.17,11.12c1.36,2.73,3.05,5.29,4.55,7.94.42.74.7,1.54,1.4,3.09-1.47-.56-2.08-.83-2.71-1-2.53-.81-5-2-7.6-2.31-8.33-1-13.16-4.62-15.67-12.7-.82-2.64-1.18-5.42-1.85-8.11a39.33,39.33,0,0,0-1.48-4.45,4.43,4.43,0,0,0-4.62-3.16,12.55,12.55,0,0,1-3.34-.89l0-.79c.91-.07,1.82-.1,2.73-.21,7.7-.95,15.48-1.49,23.07-3,9.36-1.85,17.36-6.72,24.4-13.14,2.12-1.93,4.19-3.92,6.44-5.7a13.92,13.92,0,0,1,3.43-1.47l.45.82-7.66,6.78c7.52,1.21,14-.58,20.59-1.57l.21,1c-3.51.86-7,2-10.55,2.49a33.69,33.69,0,0,1-8.86,0c-3.27-.42-5.12,1.25-7.35,3.73l11.17,1.8ZM321.65-465c-2.82-9-10.56-16.33-17-16.26A58,58,0,0,0,321.65-465Zm17-3.66c.05,5.33,2.07,10.92,5,13.75a3.53,3.53,0,0,0,3.14.77,47.87,47.87,0,0,0,6.05-4C346.25-459.73,342.31-463.48,338.61-468.66Zm-20,2.73c-7.38-4.45-13.21-9.68-17.44-16.6C302.8-471.15,309.32-464.81,318.62-465.93ZM356.24-468c.54-3-.64-4.67-2.71-4.84-4.56-.39-9.17-.28-13.76-.32-.36,0-.72.42-1.11.66,2.17,2.45,3,2.94,5.56,2.53C348.37-470.65,352.48-471.46,356.24-468Zm-.86,7c1.64-1.69,1.45-3.35.22-5-2.25-3-6.09-3.69-10.78-1.93a4,4,0,0,0,.73.78C348.8-465.14,352.06-463.11,355.38-461Zm-20.6-21.86c-2.2-3.78-5.91-4.73-9.47-2.78Zm18.86,22.31L343-466.37C345.76-463,348.8-460.09,353.64-460.6Zm-3.53-28.5.13.89,4.94-.64-.14-1.08C353.21-491.22,351.64-490.36,350.11-489.1Z" transform="translate(-109.26 653.9)"/><path class="cls-2" d="M261.32-375.71c-2.17-.25-4.34-.45-6.5-.75a26.32,26.32,0,0,0-16.64,3c-1.21.67-2.48,1.25-3.7,1.91-5.59,3-11,2.81-16.19-.94a17.21,17.21,0,0,0-11.83-3.05c-6.17.45-10.14-2-12.92-9.11-1.76-4.49-1.08-8.89,2.41-12.35a24,24,0,0,1,16.71-7,12.65,12.65,0,0,1,2.34.37l.09.76a23.13,23.13,0,0,0-2.87.71c-4.28,1.63-8.8,2.85-12.72,5.12a9.11,9.11,0,0,0-4.16,11.29c2,5.83,5.17,8.42,10.72,8.17,5.26-.24,10.05.64,14.43,3.78,3.79,2.72,7.92,2.77,12.07.61,2.3-1.19,4.61-2.37,7-3.42C247-380,255.89-379.79,261.32-375.71Z" transform="translate(-109.26 653.9)"/><path class="cls-2" d="M300.91-509.61a13.75,13.75,0,0,1,2-2.05c7-4.85,13.86-9.84,21-14.38,3.55-2.25,7.08-4.33,9.56-7.82a7.52,7.52,0,0,1,1.16-1.09l.69.4-2.9,5.5c5,.12,9.95-.28,13.15,4.58a11.78,11.78,0,0,1-2.18-.54c-6.77-3.16-13.29-2.07-19.36,1.58-6.57,3.95-12.85,8.38-19.27,12.59-1.07.7-2.21,1.32-3.32,2Z" transform="translate(-109.26 653.9)"/><path class="cls-2" d="M420.69-512.32c-3.91,1-7.18,6-6.6,9.73a10.27,10.27,0,0,1,.12,4.3c-.56,2-2.31,2.55-4.23,2a2.32,2.32,0,0,1-1.33-3.61c2.73-4.54,5.64-9,8.73-13.29C418.22-514.36,419.81-514.44,420.69-512.32Z" transform="translate(-109.26 653.9)"/><path class="cls-2" d="M390.65-505.53c-.34,4.68-1,9.32,2.7,13,3.41,3.41,7.28,5.39,12.56,3.34a5.64,5.64,0,0,1-6.12,2.71c-5.13-1.09-9-4-10.73-9C387.91-498.88,387.49-502.5,390.65-505.53Z" transform="translate(-109.26 653.9)"/><text class="cls-3" transform="translate(23.45 235.54)">AUNE</text><text class="cls-4" transform="translate(99.77 286.99)">-accesorios-</text></svg>